<svg xmlns="http://www.w3.org/2000/svg" viewBox="0 0 600 840" role="img" aria-labelledby="title desc">
  <title id="title">TradeScope product cover</title>
  <desc id="desc">Cream atlas cover with the official TradeScope route and scope mark</desc>
  <rect width="600" height="840" fill="#F6F2E8"/>
  <g fill="none" stroke="#D9D2C3" stroke-width="1.5" opacity=".9">
    <path d="M-30 221C93 159 168 283 279 224s188 45 349-62"/><path d="M-38 322c123-62 199 62 310 3s188 45 349-62"/><path d="M-31 423c123-62 199 62 310 3s188 45 349-62"/>
    <path d="M103 80c55 113-26 182 20 283s-9 204 65 363"/><path d="M251 57c55 113-26 182 20 283s-9 204 65 363"/><path d="M399 34c55 113-26 182 20 283s-9 204 65 363"/>
  </g>
  <g transform="translate(55 62) scale(1.12)" color="#1B365D">
    <circle cx="50" cy="50" r="31" fill="none" stroke="currentColor" stroke-width="6"/>
    <path d="M18 66c13 0 16-29 31-29 14 0 17 22 33 22" fill="none" stroke="currentColor" stroke-width="6" stroke-linecap="round"/>
    <circle cx="18" cy="66" r="5" fill="currentColor"/><circle cx="82" cy="59" r="7" fill="currentColor"/>
  </g>
  <text x="178" y="128" fill="#1B365D" font-family="Arial, sans-serif" font-size="52" font-weight="700" letter-spacing="-2">TradeScope</text>
  <text x="181" y="158" fill="#1B365D" font-family="Arial, sans-serif" font-size="14" font-weight="700" letter-spacing="3">BY FENGTALK</text>
  <rect x="42" y="545" width="516" height="253" rx="3" fill="#1B365D"/>
  <path d="M87 720c75-11 105-115 189-99 91 18 119-86 226-50" fill="none" stroke="#F6F2E8" stroke-width="3" stroke-linecap="round"/>
  <path d="M87 720c75-11 105-115 189-99 91 18 119-86 226-50" fill="none" stroke="#E85D34" stroke-width="9" stroke-dasharray="1 35" stroke-linecap="round"/>
  <g fill="#F6F2E8" font-family="Arial, sans-serif">
    <text x="76" y="586" font-size="14" font-weight="700" letter-spacing="2.8">LATIN AMERICA · 13 MARKETS</text>
    <text x="76" y="759" font-size="21" font-weight="700" letter-spacing="1">FROM SHIPMENT TO OPPORTUNITY</text>
  </g>
</svg>
